<svg xmlns="http://www.w3.org/2000/svg" version="1.1" viewBox="-5.0 -10.0 110.0 135.0">
 <path d="m24.246 56.984h2.2617v5.3516c0 0.58203 0.35156 1.1094 0.89063 1.3281 0.17578 0.074219 0.36328 0.10938 0.54687 0.10938 0.37891 0 0.74609-0.14844 1.0234-0.42578l6.2969-6.3633h1v11.266c0 2.5547 2.0781 4.6328 4.6328 4.6328h17.727l8.5859 8.6758c0.27344 0.27734 0.64453 0.42578 1.0234 0.42578 0.18359 0 0.36719-0.035156 0.54688-0.10938 0.53906-0.22266 0.89062-0.74609 0.89062-1.3281v-7.6641h3.5195c2.5547 0 4.6328-2.0781 4.6328-4.6328v-24.137c0-2.5547-2.0781-4.6328-4.6328-4.6328h-14.238v-2.4805c0-2.1055-1.7148-3.8203-3.8203-3.8203h-30.879c-2.1055 0-3.8203 1.7148-3.8203 3.8203v16.164c0 2.1055 1.7148 3.8203 3.8203 3.8203zm48.938-14.629c0.96875 0 1.7578 0.78906 1.7578 1.7578v24.137c0 0.96875-0.78906 1.7578-1.7578 1.7578h-4.9609c-0.79297 0-1.4375 0.64453-1.4375 1.4375v5.6055l-6.5469-6.6172c-0.26953-0.27344-0.63672-0.42578-1.0195-0.42578h-18.324c-0.96875 0-1.7578-0.78906-1.7578-1.7578v-11.266h15.988c2.1055 0 3.8203-1.7148 3.8203-3.8203v-10.809zm-49.883-5.3555c0-0.51172 0.43359-0.94531 0.94531-0.94531h30.879c0.51172 0 0.94531 0.43359 0.94531 0.94531v16.164c0 0.51172-0.43359 0.94531-0.94531 0.94531h-20.461c-0.38281 0-0.75391 0.15234-1.0195 0.42578l-4.2578 4.3047v-3.293c0-0.79297-0.64453-1.4375-1.4375-1.4375h-3.6992c-0.51172 0-0.94531-0.43359-0.94531-0.94531v-16.164zm36.895 18.547c0-0.79297 0.64453-1.4375 1.4375-1.4375h6.3945c0.79297 0 1.4375 0.64453 1.4375 1.4375s-0.64453 1.4375-1.4375 1.4375h-6.3945c-0.79297 0-1.4375-0.64453-1.4375-1.4375zm0-6.3008c0-0.79297 0.64453-1.4375 1.4375-1.4375h6.3945c0.79297 0 1.4375 0.64453 1.4375 1.4375 0 0.79297-0.64453 1.4375-1.4375 1.4375h-6.3945c-0.79297 0-1.4375-0.64453-1.4375-1.4375zm9.2656 12.602c0 0.79297-0.64453 1.4375-1.4375 1.4375h-21.703c-0.79297 0-1.4375-0.64453-1.4375-1.4375 0-0.79297 0.64453-1.4375 1.4375-1.4375h21.703c0.79297 0 1.4375 0.64453 1.4375 1.4375zm-35.328-16.004c-0.5625-0.5625-0.5625-1.4727 0-2.0312 0.5625-0.5625 1.4727-0.5625 2.0312 0l2.0508 2.0508 4.9844-4.9844c0.5625-0.5625 1.4727-0.5625 2.0312 0 0.5625 0.5625 0.5625 1.4727 0 2.0312l-6 6c-0.28125 0.28125-0.64844 0.42188-1.0156 0.42188-0.36719 0-0.73438-0.14062-1.0156-0.42188l-3.0703-3.0703zm46.164 35.023c0.5625 0.5625 0.5625 1.4727 0 2.0312-3.8828 3.8828-8.3984 6.9414-13.422 9.0977-5.3398 2.2891-11.02 3.4531-16.875 3.4531-5.4766 0-10.84-1.0312-15.938-3.0703-4.1602-1.6641-7.9766-3.9297-11.375-6.7539l0.066406 0.49219c0.10938 0.78516-0.44141 1.5117-1.2266 1.6211-0.066406 0.007813-0.13281 0.015625-0.19922 0.015625-0.70703 0-1.3242-0.52344-1.4219-1.2422l-0.60938-4.4297c-0.058594-0.42969 0.078125-0.85938 0.37109-1.1758 0.29688-0.31641 0.71484-0.48047 1.1445-0.45312l4.3594 0.28906c0.79297 0.050781 1.3906 0.73828 1.3398 1.5273-0.050781 0.79297-0.73438 1.3945-1.5273 1.3398l-0.24219-0.015625c7.043 5.7383 16.086 8.9844 25.258 8.9844 5.4648 0 10.762-1.082 15.742-3.2188 4.6875-2.0117 8.8984-4.8672 12.52-8.4883 0.5625-0.5625 1.4727-0.5625 2.0312 0zm-34.762-67.719-0.47266 2.4688c-0.13672 0.71875 0.14453 1.4336 0.73438 1.8594 0.32812 0.23828 0.71094 0.35938 1.0977 0.35938 0.30859 0 0.61719-0.078126 0.90234-0.23438l2.1992-1.2109 2.2031 1.2109c0.64062 0.35156 1.4062 0.30469 1.9961-0.125 0.59375-0.42969 0.875-1.1445 0.73828-1.8633l-0.47266-2.4688 1.832-1.7188c0.53516-0.5 0.72656-1.2422 0.5-1.9375-0.22656-0.69531-0.81641-1.1836-1.543-1.2773l-2.4922-0.3125-1.0703-2.2734c-0.3125-0.66016-0.96094-1.0742-1.6914-1.0742-0.73047 0-1.3789 0.41016-1.6914 1.0742l-1.0703 2.2734-2.4922 0.3125c-0.72656 0.089843-1.3164 0.57812-1.543 1.2773-0.22656 0.69531-0.035157 1.4375 0.5 1.9375l1.832 1.7188zm2.8477-2.4922c0.48828-0.0625 0.91016-0.36719 1.1211-0.81641l0.49219-1.0508 0.49219 1.0508c0.21094 0.44531 0.63281 0.75391 1.1211 0.81641l1.1523 0.14453-0.84766 0.79297c-0.35937 0.33594-0.51953 0.83594-0.42969 1.3164l0.21875 1.1406-1.0156-0.55859c-0.42969-0.23828-0.95312-0.23828-1.3867 0l-1.0156 0.55859 0.21875-1.1406c0.09375-0.48438-0.070312-0.98047-0.42969-1.3164l-0.84766-0.79688 1.1523-0.14453zm-24.426 9.4414 2.4453 0.57031 0.82422 2.3711c0.23828 0.69141 0.83984 1.168 1.5703 1.2461 0.066406 0.007813 0.13672 0.011719 0.20312 0.011719 0.65234 0 1.2461-0.33594 1.5938-0.90234l1.3008-2.1484 2.5117-0.050782c0.73047-0.015624 1.3711-0.4375 1.668-1.1094 0.29688-0.66797 0.18359-1.4297-0.29297-1.9805l-1.6445-1.9023 0.72656-2.4062c0.21094-0.69922 0.007813-1.4414-0.53906-1.9297-0.54297-0.48828-1.3008-0.61719-1.9766-0.33203l-2.3164 0.97656-2.0625-1.4336c-0.60156-0.41797-1.3672-0.44922-2-0.085937-0.63281 0.36719-0.98828 1.0469-0.92969 1.7734l0.21094 2.5039-2.0039 1.5195c-0.58203 0.44141-0.85156 1.1602-0.69922 1.875 0.15234 0.71484 0.6875 1.2656 1.4023 1.4297zm3.6641-3.0117c0.39453-0.29688 0.60547-0.77344 0.5625-1.2656l-0.097656-1.1562 0.95312 0.66406c0.40234 0.28125 0.92578 0.33594 1.3789 0.14453l1.0703-0.44922-0.33594 1.1133c-0.14453 0.47266-0.035156 0.98438 0.28906 1.3555l0.75781 0.87891-1.1602 0.023437c-0.49219 0.011719-0.94531 0.27344-1.1992 0.69141l-0.60156 0.99219-0.38281-1.0977c-0.16016-0.46484-0.55078-0.81641-1.0312-0.92578l-1.1328-0.26563 0.92578-0.70312zm37.969 4.1094 2.5117 0.050782 1.3008 2.1484c0.34375 0.56641 0.94141 0.90234 1.5938 0.90234 0.066406 0 0.13281-0.003906 0.19922-0.011719 0.72656-0.074218 1.3281-0.55469 1.5703-1.2422l0.82422-2.3711 2.4453-0.57031c0.71094-0.16797 1.25-0.71484 1.4023-1.4297s-0.11328-1.4336-0.69922-1.8789l-2.0039-1.5195 0.21094-2.5039c0.0625-0.73047-0.29297-1.4102-0.92969-1.7734-0.63281-0.36328-1.3984-0.33203-2 0.085937l-2.0625 1.4336-2.3164-0.97656c-0.67578-0.28516-1.4297-0.15625-1.9766 0.33594-0.54297 0.48828-0.75 1.2305-0.53906 1.9297l0.72656 2.4062-1.6445 1.9023c-0.47656 0.55469-0.58984 1.3125-0.29297 1.9805s0.9375 1.0938 1.668 1.1094zm3.2461-5.0625-0.33594-1.1133 1.0703 0.44922c0.45313 0.19141 0.97266 0.13672 1.3789-0.14453l0.95312-0.66406-0.097656 1.1562c-0.039063 0.49219 0.17187 0.96875 0.5625 1.2656l0.92578 0.70312-1.1328 0.26562c-0.48047 0.11328-0.86719 0.46094-1.0312 0.92578l-0.38281 1.0977-0.60156-0.99219c-0.25391-0.42188-0.70703-0.68359-1.1992-0.69141l-1.1602-0.023437 0.75781-0.87891c0.32031-0.37109 0.42969-0.88281 0.28906-1.3555zm24.105 56.539c0.30469 0.73438-0.046875 1.5742-0.77734 1.8789l-4.1328 1.707c-0.17578 0.074219-0.36328 0.10938-0.55078 0.10938-0.23438 0-0.46875-0.058594-0.68359-0.17188-0.37891-0.20312-0.64844-0.57031-0.73047-0.99219l-0.82031-4.293c-0.14844-0.78125 0.36328-1.5312 1.1406-1.6836 0.77734-0.14844 1.5312 0.36328 1.6797 1.1406l0.09375 0.49609c2.8867-5.6211 4.4023-11.879 4.4023-18.254 0-10.676-4.1562-20.715-11.707-28.266-0.5625-0.5625-0.5625-1.4727 0-2.0312 0.5625-0.5625 1.4727-0.5625 2.0312 0 8.0938 8.0938 12.551 18.852 12.551 30.297 0 6.7656-1.5938 13.406-4.6289 19.391l0.25391-0.10547c0.73438-0.30469 1.5742 0.046875 1.8789 0.78125zm-73.461-44.957c-0.011719 0.78516-0.65234 1.4141-1.4375 1.4141h-0.023438c-0.79297-0.011718-1.4258-0.66797-1.4141-1.4609l0.007812-0.5625c-5.9414 7.1602-9.1914 16.133-9.1914 25.496 0 4.8125 0.84766 9.5156 2.5117 13.984 1.043 2.7969 2.4062 5.4805 4.0547 7.9766 0.4375 0.66406 0.25391 1.5547-0.41016 1.9922-0.24219 0.16016-0.51953 0.23828-0.78906 0.23828-0.46875 0-0.92578-0.22656-1.1992-0.64844-1.7656-2.6797-3.2266-5.5586-4.3477-8.5547-1.7891-4.7891-2.6953-9.832-2.6953-14.988 0-9.9297 3.4062-19.445 9.6445-27.078l-0.21094 0.039062c-0.78125 0.14844-1.5312-0.36719-1.6797-1.1484-0.14844-0.78125 0.36719-1.5312 1.1484-1.6797l4.3945-0.82812c0.42578-0.078125 0.86328 0.035156 1.1914 0.3125s0.51562 0.69141 0.51172 1.1211l-0.074219 4.3711z"/>
<text x="0.0" y="117.5" font-size="5.0" font-weight="bold" font-family="Arbeit Regular, Helvetica, Arial-Unicode, Arial, Sans-serif" fill="#000000">Created by Mia Elysia</text><text x="0.0" y="122.5" font-size="5.0" font-weight="bold" font-family="Arbeit Regular, Helvetica, Arial-Unicode, Arial, Sans-serif" fill="#000000">from Noun Project</text></svg>