<svg xmlns="http://www.w3.org/2000/svg" version="1.1" viewBox="-5.0 -10.0 110.0 135.0">
 <path d="m46.875 46.219v-24.719c0-1.7188 1.4062-3.125 3.125-3.125s3.125 1.4062 3.125 3.125v24.719c0 1.7188-1.4062 3.125-3.125 3.125s-3.125-1.4062-3.125-3.125zm22.75-19.781c-1.3438-1.0938-3.3125-0.875-4.4062 0.4375-1.0938 1.3438-0.90625 3.3125 0.4375 4.4062 5.8125 4.75 9.1562 11.75 9.1562 19.25 0 13.688-11.156 24.844-24.844 24.844s-24.844-11.156-24.844-24.844c0-6.875 2.75-13.25 7.7188-18 1.25-1.1875 1.3125-3.1562 0.09375-4.4062-1.1875-1.25-3.1562-1.3125-4.4062-0.09375-6.2188 5.9375-9.6562 13.938-9.6562 22.531 0 17.156 13.938 31.094 31.094 31.094s31.094-13.938 31.094-31.094c0-9.375-4.1875-18.156-11.469-24.094z"/>
<text x="0.0" y="117.5" font-size="5.0" font-weight="bold" font-family="Arbeit Regular, Helvetica, Arial-Unicode, Arial, Sans-serif" fill="#000000">Created by Jessiey</text><text x="0.0" y="122.5" font-size="5.0" font-weight="bold" font-family="Arbeit Regular, Helvetica, Arial-Unicode, Arial, Sans-serif" fill="#000000">from Noun Project</text></svg>